<svg xmlns="http://www.w3.org/2000/svg" width="60" height="60" viewBox="0 0 60 60">
  <g id="Download" transform="translate(-2369 -160)">
    <g id="Group_160932" data-name="Group 160932" transform="translate(356)">
      <rect id="Rectangle_1218" data-name="Rectangle 1218" width="60" height="60" transform="translate(2013 160)" fill="none"/>
      <g id="Composant_33" data-name="Composant 33" transform="translate(2034.168 178.224)">
        <path id="Path_83165" data-name="Path 83165" d="M17.015,4.507,13.157.649A2.208,2.208,0,0,0,11.6,0H2.208A2.215,2.215,0,0,0,0,2.212V21.344a2.208,2.208,0,0,0,2.208,2.208H15.456a2.208,2.208,0,0,0,2.208-2.208V6.071a2.219,2.219,0,0,0-.649-1.564ZM11.777,1.5a.724.724,0,0,1,.34.193l3.858,3.858a.724.724,0,0,1,.193.34H11.777Zm4.415,19.845a.738.738,0,0,1-.736.736H2.208a.738.738,0,0,1-.736-.736V2.212a.742.742,0,0,1,.736-.74h8.1V6.259a1.1,1.1,0,0,0,1.1,1.1h4.783ZM9.568,9.936A.368.368,0,0,0,9.2,9.568H8.464a.368.368,0,0,0-.368.368v4.049H5.674a1.239,1.239,0,0,0-1.15.769,1.305,1.305,0,0,0,.25,1.417l3.134,3.3a1.268,1.268,0,0,0,1.848,0l3.134-3.3a1.308,1.308,0,0,0,.25-1.418,1.239,1.239,0,0,0-1.15-.769H9.568Zm1.971,5.521L8.832,18.309,6.125,15.457Z" fill="#2f3a48"/>
      </g>
    </g>
  </g>
</svg>
