<svg xmlns="http://www.w3.org/2000/svg" width="60" height="60" viewBox="0 0 60 60">
  <g id="Form-trash" transform="translate(-1135 -934)">
    <g id="Group_160947" data-name="Group 160947" transform="translate(178)">
      <g id="Group_160944" data-name="Group 160944" transform="translate(83)">
        <g id="Group_160942" data-name="Group 160942" transform="translate(324)">
          <g id="Group_160934" data-name="Group 160934">
            <path id="Path_83167" data-name="Path 83167" d="M0,0H60V60H0Z" transform="translate(550 934)" fill="none"/>
            <path id="Path_83190" data-name="Path 83190" d="M19.872,2.944H15.456L13.909.886A2.2,2.2,0,0,0,12.144,0H8.464A2.2,2.2,0,0,0,6.7.886L5.152,2.944H.736a.736.736,0,1,0,0,1.472H19.872a.736.736,0,1,0,0-1.472Zm-12.88,0,.885-1.179a.739.739,0,0,1,.586-.293h3.68a.735.735,0,0,1,.587.293l.885,1.179ZM18.4,5.888a.738.738,0,0,0-.736.736V19.872a2.21,2.21,0,0,1-2.208,2.208H5.152a2.209,2.209,0,0,1-2.208-2.208V6.624a.736.736,0,1,0-1.472,0V19.872a3.685,3.685,0,0,0,3.68,3.68h10.3a3.684,3.684,0,0,0,3.68-3.68V6.624A.738.738,0,0,0,18.4,5.888ZM6.624,19.136V8.832a.736.736,0,1,0-1.472,0v10.3a.736.736,0,1,0,1.472,0Zm4.416,0V8.832a.736.736,0,0,0-1.472,0v10.3a.736.736,0,0,0,1.472,0Zm4.416,0V8.832a.736.736,0,0,0-1.472,0v10.3a.736.736,0,1,0,1.472,0Z" transform="translate(569.696 952.224)" fill="#2f3a48"/>
          </g>
        </g>
      </g>
    </g>
  </g>
</svg>
