<svg width="21.379068" height="23.60318" viewBox="0 0 21.379068 23.60318" version="1.1" xmlns="http://www.w3.org/2000/svg" xmlns:svg="http://www.w3.org/2000/svg"> <g id="Form-clipboard" transform="translate(-569.0022,-951.95062)"> <g id="Group_160934" data-name="Group 160934"> <g id="Group_160938" data-name="Group 160938"> <path id="Path_83167" data-name="Path 83167" d="M 0,0 H 60 V 60 H 0 Z" transform="translate(550,934)" fill="none" /> <path id="Path_83187" data-name="Path 83187" d="m 30.665,14.626 a 1.671,1.671 0 0 0 2.366,2.359 L 42.907,7.136 A 3.275,3.275 0 0 0 38.27,2.512 L 26.9,13.844 a 4.88,4.88 0 0 0 6.911,6.89 l 8.524,-8.5 a 0.73715958,0.73715958 0 1 1 1.044,1.041 l -8.524,8.5 a 6.3526574,6.3526574 0 1 1 -9,-8.968 L 37.227,1.478 a 4.75,4.75 0 1 1 6.726,6.708 l -9.876,9.849 a 3.1445067,3.1445067 0 1 1 -4.453,-4.441 l 7.033,-7.015 a 0.737,0.737 0 1 1 1.043,1.04 z" transform="translate(545,951.91)" fill="rgb(255,255,255)" /> </g> </g> </g> </svg>