<svg
   width="19.785988"
   height="25.081715"
   viewBox="0 0 19.785988 25.081715"
   version="1.1"
 
   xmlns="http://www.w3.org/2000/svg"
   xmlns:svg="http://www.w3.org/2000/svg">
  <defs
     id="defs9" />
 
  <g
     id="Form-chev-down"
     transform="translate(-484.107,-949.45914)">
   
    <g
       id="g47"
       transform="translate(0,6.910215)">
      <path
         id="Path_83166"
         data-name="Path 83166"
         d="m 503.55268,958.901 -8.79,8.422 a 1.1,1.1 0 0 1 -1.526,0 l -8.79,-8.422 a 1.1029725,1.1029725 0 1 1 1.527,-1.592 l 8.068,7.722 7.985,-7.726 a 1.1026117,1.1026117 0 1 1 1.527,1.591 z"
         fill="rgb(47, 58, 72)" />
      <path
         id="Path_83166-9"
         data-name="Path 83166"
         d="m 484.4473,951.27857 8.79,-8.422 a 1.1,1.1 0 0 1 1.526,0 l 8.79,8.422 a 1.1029725,1.1029725 0 1 1 -1.527,1.592 l -8.068,-7.722 -7.985,7.726 a 1.1026117,1.1026117 0 1 1 -1.527,-1.591 z"
         fill="rgb(47, 58, 72)" />
    </g>
  </g>
</svg>
