<svg xmlns="http://www.w3.org/2000/svg" width="60" height="60" viewBox="0 0 60 60">
  <g id="Form-move" transform="translate(-957 -934)">
    <g id="Group_160944" data-name="Group 160944" transform="translate(83)">
      <g id="Group_160942" data-name="Group 160942" transform="translate(324)">
        <g id="Group_160934" data-name="Group 160934">
          <path id="Path_83167" data-name="Path 83167" d="M0,0H60V60H0Z" transform="translate(550 934)" fill="none"/>
          <path id="Path_83188" data-name="Path 83188" d="M23.552,11.735a.738.738,0,0,1-.216.522l-3.68,3.68a.644.644,0,0,1-.52.255.736.736,0,0,1-.52-1.256l2.425-2.424H12.512V21.04l2.424-2.424a.735.735,0,1,1,1.041,1.04l-3.68,3.68a.735.735,0,0,1-1.041,0l-3.68-3.68a.736.736,0,1,1,1.041-1.041L11.04,21.04V12.512H2.513l2.424,2.424A.736.736,0,0,1,3.9,15.976L.216,12.3A.76.76,0,0,1,0,11.735a.665.665,0,0,1,.216-.519L3.9,7.536a.927.927,0,0,1,.52-.176.736.736,0,0,1,.52,1.256L2.513,11.04H11.04V2.513L8.616,4.936A.735.735,0,1,1,7.576,3.9l3.68-3.68a.735.735,0,0,1,1.041,0l3.68,3.68a.736.736,0,0,1-.52,1.256.733.733,0,0,1-.52-.216L12.512,2.513V11.04H21.04L18.617,8.616a.735.735,0,1,1,1.04-1.041l3.68,3.68A.721.721,0,0,1,23.552,11.735Z" transform="translate(568.224 952.224)" fill="#2f3a48"/>
        </g>
      </g>
    </g>
  </g>
</svg>
