<svg width="20" height="20" viewBox="0 0 20 20" version="1.1" xmlns="http://www.w3.org/2000/svg" xmlns:svg="http://www.w3.org/2000/svg"> <path id="rect3-6" style="fill:rgb(47, 58, 72)" d="M 4 0 C 1.784 0 0 1.784 0 4 L 0 16 C 0 18.216 1.784 20 4 20 L 16 20 C 18.216 20 20 18.216 20 16 L 20 4 C 20 1.784 18.216 0 16 0 L 4 0 z M 15.216797 5.7011719 A 0.858 0.858 0 0 1 16.015625 6.5585938 L 16.015625 6.5625 A 0.856 0.856 0 0 1 15.763672 7.1699219 L 8.8847656 14.044922 A 0.859 0.859 0 0 1 7.6699219 14.044922 L 4.2363281 10.603516 A 0.85913474 0.85913474 0 1 1 5.4511719 9.3886719 L 8.28125 12.220703 L 14.548828 5.9511719 A 0.858 0.858 0 0 1 15.216797 5.7011719 z " /> </svg>