<svg xmlns="http://www.w3.org/2000/svg" width="60" height="60" viewBox="0 0 60 60"> <g id="Form-date-picker" transform="translate(-550 -932)"> <g id="Group_160934" data-name="Group 160934"> <path id="Path_83167" data-name="Path 83167" d="M0,0H60V60H0Z" transform="translate(550 932)" fill="none"/> <path id="Path_83186" data-name="Path 83186" d="M5.152,0a.737.737,0,0,1,.736.736V2.944H14.72V.736a.736.736,0,1,1,1.472,0V2.944h1.472a2.945,2.945,0,0,1,2.944,2.944v14.72a2.947,2.947,0,0,1-2.944,2.944H2.944A2.945,2.945,0,0,1,0,20.608V5.888A2.944,2.944,0,0,1,2.944,2.944H4.416V.736A.737.737,0,0,1,5.152,0ZM19.136,8.832H14.352v3.312h4.784Zm0,4.784H14.352V17.3h4.784Zm0,5.152H14.352V22.08h3.312a1.47,1.47,0,0,0,1.472-1.472ZM12.88,17.3v-3.68H7.728V17.3ZM7.728,22.08H12.88V18.768H7.728ZM6.256,17.3v-3.68H1.472V17.3ZM1.472,18.768v1.84A1.471,1.471,0,0,0,2.944,22.08H6.256V18.768Zm0-6.624H6.256V8.832H1.472Zm6.256,0H12.88V8.832H7.728Zm9.936-7.728H2.944A1.471,1.471,0,0,0,1.472,5.888V7.36H19.136V5.888A1.47,1.47,0,0,0,17.664,4.416Z" transform="translate(569.696 950.224)" fill="rgb(255,255,255)"/> </g> </g> </svg>