<svg width="20" height="20" viewBox="0 0 20 20" version="1.1" xmlns="http://www.w3.org/2000/svg" xmlns:svg="http://www.w3.org/2000/svg"> <path id="rect5490" style="fill:rgb(47, 58, 72)" d="M 10 0 C 4.46 0 0 4.46 0 10 C 0 15.54 4.46 20 10 20 C 15.54 20 20 15.54 20 10 C 20 4.46 15.54 0 10 0 z M 10 1.5 A 8.5 8.5 0 0 1 18.5 10 A 8.5 8.5 0 0 1 10 18.5 A 8.5 8.5 0 0 1 1.5 10 A 8.5 8.5 0 0 1 10 1.5 z M 10 3.0996094 A 6.9000001 6.9000001 0 0 0 3.0996094 10 A 6.9000001 6.9000001 0 0 0 10 16.900391 A 6.9000001 6.9000001 0 0 0 16.900391 10 A 6.9000001 6.9000001 0 0 0 10 3.0996094 z " /> </svg>