<?xml version="1.0" encoding="UTF-8" standalone="no"?>
<svg
   width="20"
   height="20"
   viewBox="0 0 20 20"
   version="1.1"
   id="svg21"
   sodipodi:docname="toggle.svg"
   inkscape:version="1.1.1 (3bf5ae0d25, 2021-09-20)"
   xmlns:inkscape="http://www.inkscape.org/namespaces/inkscape"
   xmlns:sodipodi="http://sodipodi.sourceforge.net/DTD/sodipodi-0.dtd"
   xmlns="http://www.w3.org/2000/svg"
   xmlns:svg="http://www.w3.org/2000/svg">
  <defs
     id="defs8" />
  <sodipodi:namedview
     id="namedview6"
     pagecolor="#ffffff"
     bordercolor="#666666"
     borderopacity="1.0"
     inkscape:pageshadow="2"
     inkscape:pageopacity="0.0"
     inkscape:pagecheckerboard="0"
     showgrid="false"
     inkscape:zoom="10.4"
     inkscape:cx="13.701923"
     inkscape:cy="30.913462"
     inkscape:window-width="1920"
     inkscape:window-height="1017"
     inkscape:window-x="4472"
     inkscape:window-y="243"
     inkscape:window-maximized="1"
     inkscape:current-layer="g51633" />
  <g
     id="g51633">
    <path
       id="rect5490"
       d="M 10,20 C 4.46,20 0,15.54 0,10 0,4.46 4.46,0 10,0 c 5.54,0 10,4.46 10,10 0,5.54 -4.46,10 -10,10 z m 0,-1.5 c 4.69442,0 8.5,-3.80558 8.5,-8.5 0,-4.69442 -3.80558,-8.5 -8.5,-8.5 -4.6944204,0 -8.5,3.80558 -8.5,8.5 0,4.69442 3.8055796,8.5 8.5,8.5 z"
       style="display:none" />
    <rect
       style="display:none;fill:#ffffff;stroke-width:0.728854"
       id="rect19256"
       width="17"
       height="17"
       x="1.5"
       y="1.5"
       ry="8.5001574" />
    <circle
       style="fill:#000000;fill-opacity:1;stroke-width:0.5"
       id="path1035"
       cx="10"
       cy="10"
       r="10" />
  </g>
</svg>
