<svg xmlns="http://www.w3.org/2000/svg" width="60" height="60" viewBox="0 0 60 60">
  <g id="Aides" transform="translate(-2102 -160)">
    <g id="Group_160929" data-name="Group 160929" transform="translate(89)">
      <rect id="Rectangle_1218" data-name="Rectangle 1218" width="60" height="60" transform="translate(2013 160)" fill="none"/>
      <g id="aides_à_l_emploi_-_hands-helping-light" data-name="aides à l&apos;emploi - hands-helping-light" transform="translate(2028.279 178.225)">
        <path id="hands-helping-light" d="M29.346,9.6l-.368-.639a.368.368,0,0,0-.5-.133l-4.968,2.9V11A2.209,2.209,0,0,0,21.3,8.789H14.677V11.65a1.524,1.524,0,0,1-1.224,1.532,1.476,1.476,0,0,1-1.72-1.454V7.39A1.837,1.837,0,0,1,12.6,5.831l1.536-.961a3.316,3.316,0,0,1,1.753-.5h4.747l5.451-3.082a.369.369,0,0,0,.138-.5L25.855.141a.369.369,0,0,0-.5-.138L20.247,2.9H15.891a4.789,4.789,0,0,0-2.535.727l-1.541.961A3.276,3.276,0,0,0,10.334,6.82l-2.875,1.7a3.344,3.344,0,0,0-1.615,2.847v1.776l-5.7,3.238a.369.369,0,0,0-.138.5l.368.639a.369.369,0,0,0,.5.138L7.317,14V11.369a1.863,1.863,0,0,1,.892-1.582l2.052-1.214V11.6a3.028,3.028,0,0,0,2.65,3.059,2.95,2.95,0,0,0,3.238-2.93V10.261H21.3a.738.738,0,0,1,.736.736v1.472a.738.738,0,0,1-.736.736H20.2v1.656a1.645,1.645,0,0,1-1.647,1.647h-.741v.736a1.849,1.849,0,0,1-1.849,1.849H10.928l-5.318,3.1a.368.368,0,0,0-.133.5l.368.635a.368.368,0,0,0,.5.133l4.977-2.893H15.96a3.334,3.334,0,0,0,3.257-2.654,3.131,3.131,0,0,0,2.452-3.05v-.216a2.183,2.183,0,0,0,1.463-1L29.213,10.1a.368.368,0,0,0,.133-.5Z" transform="translate(0.045 0.045)" fill="#2f3a48"/>
      </g>
    </g>
  </g>
</svg>
