<svg xmlns="http://www.w3.org/2000/svg" width="60" height="60" viewBox="0 0 60 60">
  <g id="Outils" transform="translate(-2280 -160)">
    <g id="Group_160931" data-name="Group 160931" transform="translate(267)">
      <rect id="Rectangle_1218" data-name="Rectangle 1218" width="60" height="60" transform="translate(2013 160)" fill="none"/>
      <g id="Outils_de_recherche_-_tools-light" data-name="Outils de recherche - tools-light" transform="translate(2031.224 178.223)">
        <path id="tools-light" d="M23.12,17.917,17.4,12.19a3.679,3.679,0,0,0-4.632-.465L8.832,7.792V4.416L2.944,0,0,2.944,4.416,8.832H7.792l3.933,3.933a3.679,3.679,0,0,0,.469,4.632l5.727,5.727a1.471,1.471,0,0,0,1.04.432A1.451,1.451,0,0,0,20,23.124L23.124,20a1.478,1.478,0,0,0,0-2.084ZM7.36,7.273V7.36H5.152L1.946,3.082,3.082,1.946,7.36,5.152Zm11.6,14.807-5.722-5.727a2.205,2.205,0,1,1,3.119-3.119l5.727,5.722ZM2.944,19.872a.736.736,0,1,0,.736-.736A.738.738,0,0,0,2.944,19.872ZM12.733,3.077a5.425,5.425,0,0,1,3.855-1.605,5.548,5.548,0,0,1,.952.083L14.352,4.747l.635,3.818,3.823.635L22,6.012a5.42,5.42,0,0,1-1.523,4.807,5.35,5.35,0,0,1-1.38.989l1.086,1.086a6.66,6.66,0,0,0,1.334-1.035A6.886,6.886,0,0,0,23.34,5.267a1.245,1.245,0,0,0-.879-.9,1.263,1.263,0,0,0-1.228.322L18.294,7.627l-2.033-.34-.34-2.033L18.86,2.314a1.253,1.253,0,0,0-.584-2.1,6.9,6.9,0,0,0-6.587,1.826A6.748,6.748,0,0,0,10.3,4.062V7.181L11.321,8.2a5.418,5.418,0,0,1,1.412-5.12ZM4.922,21.487a2.073,2.073,0,0,1-2.861,0,2.03,2.03,0,0,1,0-2.861L8.781,11.9l-1.04-1.04L1.021,17.586a3.494,3.494,0,0,0,2.47,5.966,3.458,3.458,0,0,0,2.47-1.026l4.683-4.678a5.333,5.333,0,0,1-.713-1.371Z" fill="#2f3a48"/>
      </g>
    </g>
  </g>
</svg>
