<svg xmlns="http://www.w3.org/2000/svg" width="60" height="60" viewBox="0 0 60 60">
  <g id="Profil" transform="translate(-2013 -160)">
    <g id="Group_160928" data-name="Group 160928">
      <rect id="Rectangle_1218" data-name="Rectangle 1218" width="60" height="60" transform="translate(2013 160)" fill="none"/>
      <g id="Mon_profil_-_id-card-light" data-name="Mon profil - id-card-light" transform="translate(2029.752 179.695)">
        <path id="id-card-light" d="M16.56,45.248h5.152a.369.369,0,0,0,.368-.368v-.736a.369.369,0,0,0-.368-.368H16.56a.369.369,0,0,0-.368.368v.736A.369.369,0,0,0,16.56,45.248Zm0-2.944h5.152a.369.369,0,0,0,.368-.368V41.2a.369.369,0,0,0-.368-.368H16.56a.369.369,0,0,0-.368.368v.736A.369.369,0,0,0,16.56,42.3Zm0,5.888h5.152a.369.369,0,0,0,.368-.368v-.736a.369.369,0,0,0-.368-.368H16.56a.369.369,0,0,0-.368.368v.736A.369.369,0,0,0,16.56,48.192ZM8.832,46.72a3.68,3.68,0,1,0-3.68-3.68A3.679,3.679,0,0,0,8.832,46.72Zm0-5.888A2.208,2.208,0,1,1,6.624,43.04,2.209,2.209,0,0,1,8.832,40.832ZM23.552,32H2.944A2.947,2.947,0,0,0,0,34.944v14.72a2.947,2.947,0,0,0,2.944,2.944H23.552A2.947,2.947,0,0,0,26.5,49.664V34.944A2.947,2.947,0,0,0,23.552,32ZM12.512,51.136H5.152v-.695a1.614,1.614,0,0,1,.276-.9,1.489,1.489,0,0,1,1.256-.607,16.31,16.31,0,0,0,2.153.322,16.576,16.576,0,0,0,2.153-.322,1.5,1.5,0,0,1,1.256.607,1.614,1.614,0,0,1,.276.9v.695Zm12.512-1.472a1.476,1.476,0,0,1-1.472,1.472H13.984v-.695a3.079,3.079,0,0,0-.524-1.725,2.963,2.963,0,0,0-2.475-1.26c-.9,0-1.122.322-2.153.322s-1.256-.322-2.153-.322A2.939,2.939,0,0,0,4.2,48.716a3.079,3.079,0,0,0-.524,1.725v.695H2.944a1.476,1.476,0,0,1-1.472-1.472V37.888H25.024Zm0-13.248H1.472V34.944a1.476,1.476,0,0,1,1.472-1.472H23.552a1.476,1.476,0,0,1,1.472,1.472Z" transform="translate(0 -32)" fill="#2f3a48"/>
      </g>
    </g>
  </g>
</svg>
