<?xml version="1.0" encoding="UTF-8" standalone="no"?>
<svg
   width="60"
   height="60"
   viewBox="0 0 60.000001 60.000001"
   version="1.1"
   id="svg6"
   sodipodi:docname="Instagram-dark.svg"
   inkscape:version="1.1.1 (3bf5ae0d25, 2021-09-20)"
   xmlns:inkscape="http://www.inkscape.org/namespaces/inkscape"
   xmlns:sodipodi="http://sodipodi.sourceforge.net/DTD/sodipodi-0.dtd"
   xmlns="http://www.w3.org/2000/svg"
   xmlns:svg="http://www.w3.org/2000/svg">
  <defs
     id="defs10" />
  <sodipodi:namedview
     id="namedview8"
     pagecolor="#ffffff"
     bordercolor="#666666"
     borderopacity="1.0"
     inkscape:pageshadow="2"
     inkscape:pageopacity="0.0"
     inkscape:pagecheckerboard="0"
     showgrid="false"
     width="60px"
     lock-margins="true"
     height="60px"
     inkscape:zoom="7.9987695"
     inkscape:cx="-41.943951"
     inkscape:cy="11.189221"
     inkscape:window-width="2560"
     inkscape:window-height="1377"
     inkscape:window-x="1912"
     inkscape:window-y="-8"
     inkscape:window-maximized="1"
     inkscape:current-layer="Instagram-dark" />
  <g
     id="Instagram-dark"
     transform="translate(-707.12402,-792.998)">
    <g
       id="g190"
       transform="translate(17.12302,17.005)">
      <path
         id="Path_66963"
         data-name="Path 66963"
         d="m 107.716,118.216 c 3.472,0 3.883,0.013 5.254,0.075 a 7.2,7.2 0 0 1 2.414,0.448 4.31,4.31 0 0 1 2.468,2.468 7.2,7.2 0 0 1 0.447,2.414 c 0.063,1.371 0.076,1.782 0.076,5.254 0,3.472 -0.013,3.883 -0.076,5.254 a 7.2,7.2 0 0 1 -0.447,2.414 4.31,4.31 0 0 1 -2.468,2.468 7.2,7.2 0 0 1 -2.414,0.448 c -1.371,0.062 -1.782,0.075 -5.254,0.075 -3.472,0 -3.883,-0.013 -5.254,-0.075 a 7.193,7.193 0 0 1 -2.414,-0.448 4.3,4.3 0 0 1 -2.468,-2.468 7.193,7.193 0 0 1 -0.448,-2.414 c -0.062,-1.371 -0.076,-1.782 -0.076,-5.254 0,-3.472 0.014,-3.883 0.076,-5.254 a 7.193,7.193 0 0 1 0.448,-2.414 4.3,4.3 0 0 1 2.468,-2.468 7.193,7.193 0 0 1 2.414,-0.448 c 1.371,-0.062 1.782,-0.075 5.254,-0.075 m 0,-2.343 c -3.531,0 -3.974,0.015 -5.361,0.078 a 9.55,9.55 0 0 0 -3.156,0.6 6.652,6.652 0 0 0 -3.8,3.8 9.55,9.55 0 0 0 -0.6,3.156 c -0.063,1.387 -0.078,1.83 -0.078,5.361 0,3.531 0.015,3.974 0.078,5.361 a 9.55,9.55 0 0 0 0.6,3.156 6.652,6.652 0 0 0 3.8,3.8 9.55,9.55 0 0 0 3.156,0.6 c 1.387,0.063 1.83,0.078 5.361,0.078 3.531,0 3.974,-0.015 5.361,-0.078 a 9.555,9.555 0 0 0 3.156,-0.6 6.646,6.646 0 0 0 3.8,-3.8 9.521,9.521 0 0 0 0.6,-3.156 c 0.063,-1.387 0.078,-1.83 0.078,-5.361 0,-3.531 -0.015,-3.974 -0.078,-5.361 a 9.521,9.521 0 0 0 -0.6,-3.156 6.646,6.646 0 0 0 -3.8,-3.8 9.555,9.555 0 0 0 -3.156,-0.6 c -1.387,-0.063 -1.83,-0.078 -5.361,-0.078"
         fill="#2f3a48"
         transform="translate(612.285,677.125)" />
      <path
         id="Path_66964"
         data-name="Path 66964"
         d="m 107.716,122.2 a 6.677,6.677 0 1 0 6.676,6.677 6.677,6.677 0 0 0 -6.676,-6.677 m 0,11.011 a 4.334,4.334 0 1 1 4.334,-4.334 4.333,4.333 0 0 1 -4.334,4.334"
         fill="#2f3a48"
         transform="translate(612.285,677.125)" />
      <path
         id="Path_66965"
         data-name="Path 66965"
         d="m 116.217,121.934 a 1.561,1.561 0 1 1 -1.561,-1.56 1.561,1.561 0 0 1 1.561,1.56"
         fill="#2f3a48"
         transform="translate(612.285,677.125)" />
    </g>
  </g>
</svg>
