<?xml version="1.0" encoding="UTF-8" standalone="no"?>
<svg
   width="60"
   height="60"
   viewBox="0 0 60 59.999998"
   version="1.1"
   id="svg7"
   sodipodi:docname="Linkedin-dark.svg"
   inkscape:version="1.1.1 (3bf5ae0d25, 2021-09-20)"
   xmlns:inkscape="http://www.inkscape.org/namespaces/inkscape"
   xmlns:sodipodi="http://sodipodi.sourceforge.net/DTD/sodipodi-0.dtd"
   xmlns="http://www.w3.org/2000/svg"
   xmlns:svg="http://www.w3.org/2000/svg">
  <defs
     id="defs11" />
  <sodipodi:namedview
     id="namedview9"
     pagecolor="#ffffff"
     bordercolor="#666666"
     borderopacity="1.0"
     inkscape:pageshadow="2"
     inkscape:pageopacity="0.0"
     inkscape:pagecheckerboard="0"
     showgrid="false"
     width="60px"
     inkscape:zoom="34.98297"
     inkscape:cx="2.158193"
     inkscape:cy="11.877208"
     inkscape:window-width="2560"
     inkscape:window-height="1377"
     inkscape:window-x="1912"
     inkscape:window-y="-8"
     inkscape:window-maximized="1"
     inkscape:current-layer="svg7" />
  <g
     id="Linkedin-dark"
     transform="translate(-195.12949,-154.46156)">
    <g
       id="Group_2356"
       data-name="Group 2356">
      <rect
         id="Rectangle_946"
         data-name="Rectangle 946"
         width="4.908"
         height="15.855"
         transform="translate(213.714,180.496)"
         fill="#2f3a48"
         x="0"
         y="0" />
      <path
         id="Path_66966"
         data-name="Path 66966"
         d="m 216.145,178.42 a 2.926,2.926 0 1 0 -2.9,-2.927 2.915,2.915 0 0 0 2.9,2.927 z"
         fill="#2f3a48" />
    </g>
    <path
       id="Path_66967"
       data-name="Path 66967"
       d="m 226.467,188.028 c 0,-2.229 1.026,-3.557 2.991,-3.557 1.8,0 2.671,1.275 2.671,3.557 v 8.323 h 4.885 v -10.039 c 0,-4.247 -2.407,-6.3 -5.769,-6.3 a 5.528,5.528 0 0 0 -4.778,2.62 V 180.5 h -4.707 v 15.855 h 4.707 z"
       fill="#2f3a48" />
  </g>
</svg>
