<?xml version="1.0" encoding="UTF-8" standalone="no"?>
<svg
   width="60"
   height="60"
   viewBox="0 0 60.000002 60.000002"
   version="1.1"
   id="svg3"
   sodipodi:docname="Twitter-dark.svg"
   inkscape:version="1.1.1 (3bf5ae0d25, 2021-09-20)"
   xmlns:inkscape="http://www.inkscape.org/namespaces/inkscape"
   xmlns:sodipodi="http://sodipodi.sourceforge.net/DTD/sodipodi-0.dtd"
   xmlns="http://www.w3.org/2000/svg"
   xmlns:svg="http://www.w3.org/2000/svg">
  <defs
     id="defs7" />
  <sodipodi:namedview
     id="namedview5"
     pagecolor="#ffffff"
     bordercolor="#666666"
     borderopacity="1.0"
     inkscape:pageshadow="2"
     inkscape:pageopacity="0.0"
     inkscape:pagecheckerboard="0"
     showgrid="false"
     width="60px"
     inkscape:zoom="40.51422"
     inkscape:cx="4.2330816"
     inkscape:cy="10.255658"
     inkscape:window-width="2560"
     inkscape:window-height="1377"
     inkscape:window-x="1912"
     inkscape:window-y="-8"
     inkscape:window-maximized="1"
     inkscape:current-layer="svg3" />
  <path
     id="Twitter-dark"
     d="m 17.3655,37.938419 a 14.743,14.743 0 0 0 22.682,-13.092 10.5,10.5 0 0 0 2.587,-2.684 10.338,10.338 0 0 1 -2.977,0.816 5.188,5.188 0 0 0 2.278,-2.868 10.392,10.392 0 0 1 -3.291,1.259 5.187,5.187 0 0 0 -8.834,4.728 14.713,14.713 0 0 1 -10.686,-5.417 5.191,5.191 0 0 0 1.6,6.922 5.143,5.143 0 0 1 -2.349,-0.649 5.19,5.19 0 0 0 4.158,5.15 5.187,5.187 0 0 1 -2.34,0.088 5.187,5.187 0 0 0 4.842,3.6 10.417,10.417 0 0 1 -7.67,2.147 z"
     fill="#2f3a48" />
</svg>
