<svg xmlns="http://www.w3.org/2000/svg" width="24.765" height="24.765" viewBox="0 0 24.765 24.765"><defs><style>.a{fill:#fff;}</style></defs><g transform="translate(0)"><g transform="translate(0)"><path class="a" d="M21.863,1.935H20.7V0H18.767V1.935H6V0H4.063V1.935H2.9A2.905,2.905,0,0,0,0,4.837V21.863a2.905,2.905,0,0,0,2.9,2.9H21.863a2.905,2.905,0,0,0,2.9-2.9V4.837A2.905,2.905,0,0,0,21.863,1.935Zm.967,19.928a.968.968,0,0,1-.967.967H2.9a.968.968,0,0,1-.967-.967V9.093h20.9Zm0-14.7H1.935V4.837A.968.968,0,0,1,2.9,3.87H4.063V5.8H6V3.87h12.77V5.8H20.7V3.87h1.161a.968.968,0,0,1,.967.967Z" transform="translate(0)"/></g><g transform="translate(3.667 11.154)"><rect class="a" width="1.93" height="1.93"/></g><g transform="translate(7.565 11.154)"><rect class="a" width="1.93" height="1.93"/></g><g transform="translate(11.445 11.154)"><rect class="a" width="1.93" height="1.93"/></g><g transform="translate(15.325 11.154)"><rect class="a" width="1.93" height="1.93"/></g><g transform="translate(19.223 11.154)"><rect class="a" width="1.93" height="1.93"/></g><g transform="translate(3.667 15.034)"><rect class="a" width="1.93" height="1.93"/></g><g transform="translate(7.565 15.034)"><rect class="a" width="1.93" height="1.93"/></g><g transform="translate(11.445 15.034)"><rect class="a" width="1.93" height="1.93"/></g><g transform="translate(15.325 15.034)"><rect class="a" width="1.93" height="1.93"/></g><g transform="translate(3.667 18.913)"><rect class="a" width="1.93" height="1.93"/></g><g transform="translate(7.565 18.913)"><rect class="a" width="1.93" height="1.93"/></g><g transform="translate(11.445 18.913)"><rect class="a" width="1.93" height="1.93"/></g><g transform="translate(15.325 18.913)"><rect class="a" width="1.93" height="1.93"/></g><g transform="translate(19.223 15.034)"><rect class="a" width="1.93" height="1.93"/></g></g></svg>