<svg xmlns="http://www.w3.org/2000/svg" width="16" height="16" viewBox="0 0 16 16"><g transform="translate(0)"><path d="M15.042.96A3.152,3.152,0,0,0,12.729,0H3.275A3.153,3.153,0,0,0,.962.96,3.153,3.153,0,0,0,0,3.273v9.454a3.153,3.153,0,0,0,.96,2.312A3.152,3.152,0,0,0,3.275,16h9.455A3.279,3.279,0,0,0,16,12.727V3.273A3.154,3.154,0,0,0,15.042.96Zm-.494,11.767a1.823,1.823,0,0,1-1.818,1.818H3.275a1.751,1.751,0,0,1-1.284-.534,1.751,1.751,0,0,1-.534-1.284V3.273a1.751,1.751,0,0,1,.534-1.284,1.751,1.751,0,0,1,1.284-.534h9.455a1.751,1.751,0,0,1,1.284.534,1.751,1.751,0,0,1,.534,1.284v9.454Z" transform="translate(-0.002)"/></g></svg>