<svg xmlns="http://www.w3.org/2000/svg" xmlns:xlink="http://www.w3.org/1999/xlink" width="30" height="30.063" viewBox="0 0 30 30.063"><defs><style>.a{clip-path:url(#a);}</style><clipPath id="a"><rect width="30" height="30.063"/></clipPath></defs><g class="a"><path d="M20.315,14.761l8.307-8.307a3.142,3.142,0,0,0,0-4.43L27.514.916a3.142,3.142,0,0,0-4.43,0L14.761,9.223,6.454.916a3.142,3.142,0,0,0-4.43,0L.916,2.024a3.142,3.142,0,0,0,0,4.43l8.307,8.307L.916,23.068a3.142,3.142,0,0,0,0,4.43l1.108,1.108a3.142,3.142,0,0,0,4.43,0L14.761,20.3l8.307,8.307a3.142,3.142,0,0,0,4.43,0L28.606,27.5a3.142,3.142,0,0,0,0-4.43Zm0,0" transform="translate(0.001 0.001)"/></g></svg>