<?xml version="1.0" encoding="utf-8"?>
<!-- Generator: Adobe Illustrator 21.1.0, SVG Export Plug-In . SVG Version: 6.00 Build 0)  -->
<svg version="1.1" id="Calque_1" xmlns="http://www.w3.org/2000/svg" xmlns:xlink="http://www.w3.org/1999/xlink" x="0px" y="0px"
	 viewBox="0 0 76.8 77" style="enable-background:new 0 0 76.8 77;" xml:space="preserve">
<style type="text/css">
	.st0{clip-path:url(#SVGID_2_);}
</style>
<g>
	<g>
		<defs>
			<rect id="SVGID_1_" width="76.8" height="77"/>
		</defs>
		<clipPath id="SVGID_2_">
			<use xlink:href="#SVGID_1_"  style="overflow:visible;"/>
		</clipPath>
		<path class="st0" d="M50.3,38.4l26-26c0.6-0.6,0.6-1.6,0-2.3l-9.6-9.6C66.4,0.2,66,0,65.5,0c-0.4,0-0.8,0.2-1.1,0.5l-26,26l-26-26
			c-0.6-0.6-1.7-0.6-2.3,0l-9.6,9.6c-0.6,0.6-0.6,1.6,0,2.3l26,26l-26,26c-0.6,0.6-0.6,1.6,0,2.3l9.6,9.6c0.3,0.3,0.7,0.5,1.1,0.5
			c0.4,0,0.8-0.2,1.1-0.5l26-26l26,26c0.3,0.3,0.7,0.5,1.1,0.5c0.4,0,0.8-0.2,1.1-0.5l9.6-9.6c0.6-0.6,0.6-1.6,0-2.3L50.3,38.4z
			 M50.3,38.4"/>
	</g>
</g>
</svg>
