<?xml version="1.0" encoding="utf-8"?>
<!-- Generator: Adobe Illustrator 21.0.2, SVG Export Plug-In . SVG Version: 6.00 Build 0)  -->
<svg version="1.1" id="Calque_1" xmlns="http://www.w3.org/2000/svg" xmlns:xlink="http://www.w3.org/1999/xlink" x="0px" y="0px"
	 viewBox="0 0 841.9 595.3" style="enable-background:new 0 0 841.9 595.3;" xml:space="preserve">
<style type="text/css">
	.st0{clip-path:url(#SVGID_2_);fill:#478ECB;}
</style>
<g>
	<g>
		<defs>
			<rect id="SVGID_1_" x="126" y="2.6" width="592" height="592.7"/>
		</defs>
		<clipPath id="SVGID_2_">
			<use xlink:href="#SVGID_1_"  style="overflow:visible;"/>
		</clipPath>
		<path class="st0" d="M513.7,298.2L714.1,98.1c4.6-4.6,4.6-12.3,0-17.7l-74-73.9c-2.3-2.3-5.4-3.8-8.5-3.8c-3.1,0-6.2,1.5-8.5,3.8
			L422.8,206.6L222.4,6.5c-4.6-4.6-13.1-4.6-17.7,0l-74,73.9c-4.6,4.6-4.6,12.3,0,17.7L331,298.2L130.6,498.3
			c-4.6,4.6-4.6,12.3,0,17.7l74,73.9c2.3,2.3,5.4,3.8,8.5,3.8c3.1,0,6.2-1.5,8.5-3.8L422,389.8l200.4,200.1c2.3,2.3,5.4,3.8,8.5,3.8
			c3.1,0,6.2-1.5,8.5-3.8l74-73.9c4.6-4.6,4.6-12.3,0-17.7L513.7,298.2z"/>
	</g>
</g>
</svg>
