<svg xmlns="http://www.w3.org/2000/svg" width="28.53" height="26.417" viewBox="0 0 28.53 26.417"><defs><style>.a{fill:#707070;}</style></defs><g transform="translate(28.53 -2) rotate(90)"><path class="a" d="M7.812,19.02H5.7V.528a.528.528,0,0,0-1.057,0V19.02H2.528A.528.528,0,0,0,2,19.549v6.34a.528.528,0,0,0,.528.528H4.642V28A.528.528,0,0,0,5.7,28V26.417H7.812a.528.528,0,0,0,.528-.528v-6.34A.528.528,0,0,0,7.812,19.02Zm-.528,6.34H3.057V20.077H7.283Z"/><path class="a" d="M26.812,10.567H24.7V.528a.528.528,0,0,0-1.057,0V10.567H21.528A.528.528,0,0,0,21,11.1v6.34a.528.528,0,0,0,.528.528h2.113V28A.528.528,0,0,0,24.7,28V17.964h2.113a.528.528,0,0,0,.528-.528V11.1A.528.528,0,0,0,26.812,10.567Zm-.528,6.34H22.057V11.623h4.227Z" transform="translate(-8.962)"/><path class="a" d="M45.812,2.113H43.7V.528a.528.528,0,1,0-1.057,0V2.113H40.528A.528.528,0,0,0,40,2.642v6.34a.528.528,0,0,0,.528.528h2.113V28A.528.528,0,1,0,43.7,28V9.51h2.113a.528.528,0,0,0,.528-.528V2.642A.528.528,0,0,0,45.812,2.113Zm-.528,6.34H41.057V3.17h4.227Z" transform="translate(-17.923)"/></g></svg>