<svg xmlns="http://www.w3.org/2000/svg" width="23" height="26" viewBox="0 0 23 26"><defs><style>.a{fill:#fff;}</style></defs><path class="a" d="M23.634,23.682l-5.67-6.436A11.054,11.054,0,0,0,20.221,10.5C20.221,4.709,15.906,0,10.6,0S.984,4.709.984,10.5s4.315,10.5,9.618,10.5a8.978,8.978,0,0,0,5.511-1.9l5.713,6.485a1.182,1.182,0,0,0,1.774.038A1.461,1.461,0,0,0,23.634,23.682ZM10.6,2.738c3.92,0,7.109,3.481,7.109,7.759s-3.189,7.759-7.109,7.759S3.493,14.776,3.493,10.5,6.682,2.738,10.6,2.738Z" transform="translate(-0.984)"/></svg>