<svg xmlns="http://www.w3.org/2000/svg" width="46" height="45.771" viewBox="0 0 46 45.771"><g transform="translate(0 -0.119)"><g transform="translate(0 0.119)"><path d="M34.614,12.646C34.614,5.727,29.414.119,23,.119S11.384,5.727,11.384,12.646C11.384,22.559,23,37.228,23,37.228S34.614,22.508,34.614,12.646ZM17.271,11.9A5.967,5.967,0,0,1,23,5.719,5.967,5.967,0,0,1,28.728,11.9,5.967,5.967,0,0,1,23,18.077,5.967,5.967,0,0,1,17.271,11.9Z" transform="translate(0 -0.119)"/><circle cx="3.038" cy="3.038" r="3.038" transform="translate(19.961 8.359)"/><path d="M29.811,32.87c-.982,1.476-1.9,2.761-2.671,3.793,7.614.476,12.6,2.185,14.46,3.456-2.175,1.491-8.636,3.587-18.6,3.587s-16.425-2.1-18.6-3.587c1.856-1.271,6.843-2.979,14.449-3.455-.769-1.032-1.692-2.316-2.675-3.792C6.805,33.831,0,36.713,0,40.118c0,4.19,10.3,7.588,23,7.588s23-3.4,23-7.588C46,36.711,39.189,33.828,29.811,32.87Z" transform="translate(0 -1.935)"/></g></g></svg>