<?xml version="1.0" encoding="utf-8"?>
<!-- Generator: Adobe Illustrator 21.1.0, SVG Export Plug-In . SVG Version: 6.00 Build 0)  -->
<svg version="1.1" xmlns="http://www.w3.org/2000/svg" xmlns:xlink="http://www.w3.org/1999/xlink" x="0px" y="0px"
	 viewBox="0 0 76.8 77" style="enable-background:new 0 0 76.8 77;" xml:space="preserve">
<style type="text/css">
	.st0{fill:#495663;}
</style>
<g id="Calque_1">
	<path class="st0" d="M38.5,0.5C17.4,0.5,0.3,17.6,0.3,38.8S17.4,77,38.5,77s38.3-17.1,38.3-38.3S59.6,0.5,38.5,0.5z M22.8,56
		c0-5.3,5.3-9.7,12.3-10.7v-5.5c-4.1-1.4-7.1-5.3-7.1-9.9c0-5.8,4.7-10.4,10.4-10.4S48.8,24,48.8,29.8c0,4.6-3,8.5-7.1,9.9v5.5
		C48.7,46.3,54,50.7,54,56H22.8z"/>
</g>
<g id="Calque_2">
</g>
</svg>
