<svg xmlns="http://www.w3.org/2000/svg" width="46" height="46" viewBox="0 0 46 46"><defs><style>.a{fill:none;}</style></defs><path d="M14.5,19.25H10.667v3.833H14.5Zm7.667,0H18.333v3.833h3.833Zm7.667,0H26v3.833h3.833ZM33.667,5.833H31.75V2H27.917V5.833H12.583V2H8.75V5.833H6.833A3.816,3.816,0,0,0,3.019,9.667L3,36.5a3.832,3.832,0,0,0,3.833,3.833H33.667A3.845,3.845,0,0,0,37.5,36.5V9.667A3.845,3.845,0,0,0,33.667,5.833Zm0,30.667H6.833V15.417H33.667Z" transform="translate(2.75 1.833)"/><path class="a" d="M0,0H46V46H0Z"/></svg>