<svg xmlns="http://www.w3.org/2000/svg" width="30" height="30" viewBox="0 0 30 30"><defs><style>.a{fill:#fff;}</style></defs><g transform="translate(0)"><g transform="translate(8.322 8.322)"><path class="a" d="M166.678,160a6.678,6.678,0,1,0,6.678,6.678A6.686,6.686,0,0,0,166.678,160Zm0,11.129a4.452,4.452,0,1,1,4.452-4.452A4.456,4.456,0,0,1,166.678,171.129Z" transform="translate(-160 -160)"/></g><path class="a" d="M29.063,14.063H26.2A11.257,11.257,0,0,0,15.938,3.8V.938a.938.938,0,0,0-1.875,0V3.8A11.259,11.259,0,0,0,3.8,14.063H.938a.938.938,0,0,0,0,1.875H3.8A11.257,11.257,0,0,0,14.063,26.2v2.859a.938.938,0,0,0,1.875,0V26.2A11.257,11.257,0,0,0,26.2,15.938h2.859a.938.938,0,0,0,0-1.875ZM15,24.375A9.375,9.375,0,1,1,24.375,15,9.386,9.386,0,0,1,15,24.375Z"/></g></svg>