<svg xmlns="http://www.w3.org/2000/svg" width="33.169" height="18.999" viewBox="0 0 33.169 18.999"><defs><style>.a{fill:#595959;}</style></defs><g transform="translate(0 -12.644)"><path class="a" d="M28.608,17.64a17.1,17.1,0,0,0-24.159,0L0,22.089l4.559,4.559a17.1,17.1,0,0,0,24.16,0L33.169,22.2Zm-.682,8.216a15.982,15.982,0,0,1-22.575,0L1.584,22.089l3.657-3.657a15.982,15.982,0,0,1,22.575,0L31.584,22.2Z"/><path class="a" d="M26.892,21.57a5.326,5.326,0,0,0-5.32,5.32.76.76,0,1,0,1.52,0,3.8,3.8,0,0,1,3.8-3.8.76.76,0,1,0,0-1.52Z" transform="translate(-10.159 -4.475)"/><path class="a" d="M25.125,16.57c-4.716,0-8.553,2.913-8.553,6.493s3.837,6.493,8.553,6.493,8.553-2.913,8.553-6.493S29.842,16.57,25.125,16.57Zm0,11.988c-3.99,0-7.237-2.465-7.237-5.494s3.247-5.494,7.237-5.494,7.237,2.465,7.237,5.494S29.116,28.558,25.125,28.558Z" transform="translate(-8.555 -0.942)"/></g></svg>