<svg xmlns="http://www.w3.org/2000/svg" width="34.647" height="26" viewBox="0 0 34.647 26"><defs><style>.a{fill:#595959;}</style></defs><g transform="translate(0 -64.008)"><g transform="translate(13.03 72.714)"><g transform="translate(0 0)"><path class="a" d="M200.927,192.753a.722.722,0,1,0-1.021,1.021,4.33,4.33,0,1,1-6.124,6.124.722.722,0,0,0-1.021,1.021,5.774,5.774,0,1,0,8.165-8.165Z" transform="translate(-192.55 -192.542)"/></g></g><g transform="translate(11.549 71.231)"><path class="a" d="M177.449,170.759a5.717,5.717,0,0,0-6.781,5.675,5.652,5.652,0,0,0,.1,1.006.723.723,0,0,0,.709.6.639.639,0,0,0,.127-.012.723.723,0,0,0,.585-.836,4.186,4.186,0,0,1-.078-.755,4.279,4.279,0,0,1,5.086-4.254.721.721,0,0,0,.251-1.421Z" transform="translate(-170.668 -170.659)"/></g><g transform="translate(9.029 68.926)"><g transform="translate(0 0)"><path class="a" d="M158.882,144.084a35.067,35.067,0,0,0-9.455-7.542.722.722,0,1,0-.663,1.283,33.924,33.924,0,0,1,8.6,6.725c-1.721,1.864-8.493,8.662-15.632,8.662a16.644,16.644,0,0,1-7.259-1.74.721.721,0,0,0-.627,1.3,18.051,18.051,0,0,0,7.885,1.884c8.895,0,16.82-9.245,17.154-9.639A.721.721,0,0,0,158.882,144.084Z" transform="translate(-133.435 -136.461)"/></g></g><g transform="translate(0 66.894)"><g transform="translate(0 0)"><path class="a" d="M22.061,107.491a14.906,14.906,0,0,0-4.737-.832C8.429,106.659.5,115.9.17,116.3a.722.722,0,0,0-.04.879,26.8,26.8,0,0,0,6.622,6.279.717.717,0,0,0,1-.2.72.72,0,0,0-.2-1,26.4,26.4,0,0,1-5.895-5.45c1.662-1.8,8.479-8.7,15.67-8.7a13.512,13.512,0,0,1,4.276.755.712.712,0,0,0,.914-.453A.72.72,0,0,0,22.061,107.491Z" transform="translate(0 -106.659)"/></g></g><g transform="translate(4.33 64.008)"><path class="a" d="M89.77,64.219a.722.722,0,0,0-1.021,0L64.207,88.776A.722.722,0,0,0,65.228,89.8L89.77,65.241A.723.723,0,0,0,89.77,64.219Z" transform="translate(-63.996 -64.008)"/></g></g></svg>