<svg xmlns="http://www.w3.org/2000/svg" width="60" height="60" viewBox="0 0 60 60">
  <g id="Icon-helping-hand" transform="translate(-1233 -1023)">
    <g id="Group_160971" data-name="Group 160971" transform="translate(433)">
      <g id="Group_160965" data-name="Group 160965" transform="translate(84)">
        <g id="Group_160963" data-name="Group 160963" transform="translate(84)">
          <g id="Form-chev-down" transform="translate(168 92)">
            <g id="Group_160974" data-name="Group 160974">
              <path id="Path_83191" data-name="Path 83191" d="M0,0H60V60H0Z" transform="translate(464 931)" fill="none"/>
            </g>
          </g>
        </g>
      </g>
    </g>
    <path id="Path_83193" data-name="Path 83193" d="M21.774,8.1H17.657a.736.736,0,1,0,0,1.472h4.117a.3.3,0,0,1,.3.3v2.07a.3.3,0,0,1-.3.3h-.437a.736.736,0,0,0-.736.736v2.07a1.262,1.262,0,0,1-1.242,1.334h-.23a.736.736,0,0,0-.736.736,2.027,2.027,0,0,1-2.024,2.025H11.033a.739.739,0,0,0-.365.1L5.516,22.181a.737.737,0,0,0,.365,1.376.744.744,0,0,0,.365-.1l4.985-2.848h5.138a3.5,3.5,0,0,0,3.426-2.8,2.741,2.741,0,0,0,2.278-2.77V13.685a1.773,1.773,0,0,0,1.472-1.745V9.87A1.774,1.774,0,0,0,21.774,8.1ZM5.789,12.278A5.558,5.558,0,0,1,8.468,7.457a.737.737,0,0,0,.252-1.011A.7.7,0,0,0,7.712,6.2a6.991,6.991,0,0,0-3.381,5.644L.367,14.085a.736.736,0,0,0,.725,1.281l4.7-2.661Zm7.084.975a2.579,2.579,0,0,0,2.576-2.576V7.089a.736.736,0,1,0-1.472,0v3.588a1.1,1.1,0,1,1-2.208,0V5.433a.633.633,0,0,1,.3-.54A7.994,7.994,0,0,1,16.3,3.685h2.834a.725.725,0,0,0,.34-.094c.012-.006.026,0,.038-.011l3.68-2.208A.736.736,0,1,0,22.43.11l-3.5,2.1H16.3a9.457,9.457,0,0,0-5,1.432,2.1,2.1,0,0,0-1,1.788v5.244A2.578,2.578,0,0,0,12.873,13.253ZM29.318,8.446a.739.739,0,0,0-1.012-.23l-2.935,1.849a.736.736,0,1,0,.785,1.245l2.935-1.849A.741.741,0,0,0,29.318,8.446Z" transform="translate(1248.006 1040.996)" fill="#313a47"/>
  </g>
</svg>
