<svg xmlns="http://www.w3.org/2000/svg" width="60" height="60" viewBox="0 0 60 60">
  <g id="Icon-penclip" transform="translate(-800 -1023)">
    <g id="Group_160965" data-name="Group 160965" transform="translate(84)">
      <g id="Group_160963" data-name="Group 160963" transform="translate(84)">
        <g id="Form-chev-down" transform="translate(168 92)">
          <path id="Path_83191" data-name="Path 83191" d="M0,0H60V60H0Z" transform="translate(464 931)" fill="none"/>
          <g id="s_inscrire_-_pen-alt-light" data-name="s&apos;inscrire - pen-alt-light" transform="translate(482.224 949.224)">
            <path id="pen-alt-light" d="M22.681,2.588,20.955.863a2.943,2.943,0,0,0-4.163,0L13.67,3.985,12.629,2.944a1.471,1.471,0,0,0-2.082,0L4.562,8.93a.368.368,0,0,0,0,.52l.52.52a.368.368,0,0,0,.52,0l5.985-5.985,1.041,1.041L4.313,13.341A15.044,15.044,0,0,0,0,22.316v.011a1.1,1.1,0,0,0,1.1,1.226A14.925,14.925,0,0,0,10.2,19.23L22.681,6.751a2.944,2.944,0,0,0,0-4.163ZM9.161,18.189a13.62,13.62,0,0,1-7.641,3.836,13.623,13.623,0,0,1,3.834-7.643L13.67,6.066h0l3.807,3.807L9.161,18.189ZM21.64,5.71,18.518,8.833,14.71,5.026,17.833,1.9a1.471,1.471,0,0,1,2.082,0L21.64,3.628A1.471,1.471,0,0,1,21.64,5.71Z" transform="translate(0.009)" fill="#2f3a48"/>
          </g>
        </g>
      </g>
    </g>
  </g>
</svg>
