<svg xmlns="http://www.w3.org/2000/svg" width="60" height="60" viewBox="0 0 60 60">
  <g id="Icon-tools" transform="translate(-1233 -1023)">
    <g id="Group_160971" data-name="Group 160971" transform="translate(433)">
      <g id="Group_160965" data-name="Group 160965" transform="translate(84)">
        <g id="Group_160963" data-name="Group 160963" transform="translate(84)">
          <g id="Form-chev-down" transform="translate(168 92)">
            <g id="Group_160974" data-name="Group 160974">
              <path id="Path_83191" data-name="Path 83191" d="M0,0H60V60H0Z" transform="translate(464 931)" fill="none"/>
            </g>
          </g>
        </g>
      </g>
    </g>
    <path id="Path_83180" data-name="Path 83180" d="M9.577,17.354a.735.735,0,0,0-1.161-.18L4.2,21.386a2.08,2.08,0,0,1-2.6.321,2.038,2.038,0,0,1-.32-3.127l6.2-6.2a.734.734,0,0,0,0-1.039.788.788,0,0,0-1.079,0l-6.2,6.2a3.5,3.5,0,0,0,2.939,5.937,3.694,3.694,0,0,0,2.1-1.094l4.165-4.164a.71.71,0,0,0,.131-.851C9.582,17.364,9.577,17.359,9.577,17.354Zm1.6-13.314a5.251,5.251,0,0,1,.781-1,5.446,5.446,0,0,1,3.858-1.6,5.865,5.865,0,0,1,.949.08l-3.185,3.2.633,3.817,3.824.633,3.191-3.185A5.443,5.443,0,0,1,19.7,10.782a5.125,5.125,0,0,1-.655.552.719.719,0,0,0-.068,1.09.755.755,0,0,0,.969.074,6.332,6.332,0,0,0,.794-.681,6.88,6.88,0,0,0,1.823-6.587,1.239,1.239,0,0,0-.88-.9,1.254,1.254,0,0,0-1.225.322L17.52,7.586l-2.037-.343-.339-2.03,2.938-2.943A1.249,1.249,0,0,0,17.5.173,6.9,6.9,0,0,0,10.913,2a6.506,6.506,0,0,0-.965,1.26.739.739,0,0,0,.1.905A.719.719,0,0,0,11.173,4.04ZM2.125,19.829a.707.707,0,0,0,.736.695.7.7,0,0,0,.695-.695.716.716,0,0,0-1.431,0Zm20.217-1.955L16.62,12.147a3.689,3.689,0,0,0-4.634-.466L8.013,7.75V4.376L2.167-.04l-2.944,2.9L3.638,8.711H7.014l3.933,3.932a3.68,3.68,0,0,0,.471,4.632L17.145,23a1.221,1.221,0,0,0,1.039.513,1.45,1.45,0,0,0,1.035-.431l3.087-3.127A1.44,1.44,0,0,0,22.342,17.874ZM6.541,7.28H4.374L1.166,3.043,2.263,1.9,6.5,5.112V7.28ZM18.179,22.037,12.457,16.31a2.2,2.2,0,1,1,3.117-3.116L21.3,18.912Z" transform="translate(1252.021 1041.263)" fill="#2f3a48"/>
  </g>
</svg>
