<svg xmlns="http://www.w3.org/2000/svg" width="60" height="60" viewBox="0 0 60 60">
  <g id="Icon-student-hat" transform="translate(-800 -1023)">
    <g id="Group_160965" data-name="Group 160965" transform="translate(84)">
      <g id="Group_160963" data-name="Group 160963" transform="translate(84)">
        <g id="Form-chev-down" transform="translate(168 92)">
          <path id="Path_83191" data-name="Path 83191" d="M0,0H60V60H0Z" transform="translate(464 931)" fill="none"/>
          <path id="Path_83206" data-name="Path 83206" d="M28.419,36.822,15.249,32.1a1.579,1.579,0,0,0-1.058,0L1.022,36.822A1.5,1.5,0,0,0,0,38.221a1.558,1.558,0,0,0,1.022,1.44l1.186.469v5.2L.755,51.717a.732.732,0,0,0,.718.9H4.416a.736.736,0,0,0,.718-.9L3.68,45.235V40.654l10.511,3.772a1.576,1.576,0,0,0,.528.089,1.608,1.608,0,0,0,.532-.091L28.415,39.7a1.523,1.523,0,0,0,1.024-1.479A1.426,1.426,0,0,0,28.419,36.822ZM2.4,51.1l.556-2.426L3.5,51.1Zm12.292-8.059L5.957,39.909l8.979-2.783A.736.736,0,1,0,14.5,35.72L3.652,39.081l-2.18-.819,13.28-4.779,13.216,4.779Zm7.5.745a.736.736,0,0,0-.634.827l.523,3.985a1.034,1.034,0,0,1-.681,1.028,16.817,16.817,0,0,1-6.587,1.515h-.155a16.838,16.838,0,0,1-6.606-1.515A1.034,1.034,0,0,1,7.365,48.6l.524-3.985a.736.736,0,0,0-.634-.827.729.729,0,0,0-.824.633l-.523,3.988A2.473,2.473,0,0,0,7.43,50.963a18.354,18.354,0,0,0,7.2,1.65h.19a18.313,18.313,0,0,0,7.185-1.65,2.475,2.475,0,0,0,1.522-2.556l-.523-3.986A.73.73,0,0,0,22.186,43.786Z" transform="translate(479.28 918.69)" fill="#2f3a48"/>
        </g>
      </g>
    </g>
  </g>
</svg>
