<?xml version="1.0" encoding="UTF-8"?>
<svg width="23.552" height="17.664" version="1.1" viewBox="0 0 23.552 17.664" xmlns="http://www.w3.org/2000/svg">
 <g id="Icon-enveloppe" transform="translate(-650.22 -1044.2)">
  <g id="Form-chev-down" transform="translate(168,92)">
   <rect transform="translate(464,931)" width="60" height="60" fill="none" data-name="Rectangle 1219"/>
   <g id="envelope-light" transform="translate(482.22 952.17)">
    <path transform="translate(0,-64)" d="m21.344 64h-19.136a2.209 2.209 0 0 0-2.208 2.208v13.248a2.209 2.209 0 0 0 2.208 2.208h19.136a2.209 2.209 0 0 0 2.208-2.208v-13.248a2.209 2.209 0 0 0-2.208-2.208zm-19.136 1.472h19.136a0.738 0.738 0 0 1 0.736 0.736v1.9c-1.007 0.851-2.447 2.024-6.928 5.58-0.777 0.616-2.309 2.1-3.376 2.084-1.067 0.018-2.6-1.467-3.376-2.084-4.48-3.556-5.92-4.729-6.928-5.58v-1.9a0.738 0.738 0 0 1 0.736-0.736zm19.136 14.72h-19.136a0.738 0.738 0 0 1-0.736-0.736v-9.43c1.049 0.86 2.7 2.19 6.012 4.816 0.943 0.754 2.608 2.415 4.292 2.406 1.674 0.014 3.326-1.633 4.292-2.406 3.307-2.627 4.963-3.956 6.012-4.816v9.43a0.738 0.738 0 0 1-0.736 0.736z" fill="#2f3a48" data-name="envelope-light"/>
   </g>
  </g>
 </g>
</svg>
