<svg xmlns="http://www.w3.org/2000/svg" width="60" height="60" viewBox="0 0 60 60">
  <g id="Icon-profile" transform="translate(-1233 -1023)">
    <g id="Group_160971" data-name="Group 160971" transform="translate(433)">
      <g id="Group_160965" data-name="Group 160965" transform="translate(84)">
        <g id="Group_160963" data-name="Group 160963" transform="translate(84)">
          <g id="Form-chev-down" transform="translate(168 92)">
            <g id="Group_160974" data-name="Group 160974">
              <path id="Path_83191" data-name="Path 83191" d="M0,0H60V60H0Z" transform="translate(464 931)" fill="none"/>
            </g>
          </g>
        </g>
      </g>
    </g>
    <path id="Path_83205" data-name="Path 83205" d="M16.192,46.72H22.08a.736.736,0,1,0,0-1.472H16.192a.736.736,0,0,0,0,1.472ZM23.552,32H2.944A2.944,2.944,0,0,0,0,34.944v14.72a2.944,2.944,0,0,0,2.944,2.944H23.552A2.944,2.944,0,0,0,26.5,49.664V34.944A2.945,2.945,0,0,0,23.552,32Zm1.472,17.664a1.474,1.474,0,0,1-1.472,1.472H2.944a1.474,1.474,0,0,1-1.472-1.472V36.416H25.024ZM1.472,34.944a1.474,1.474,0,0,1,1.472-1.472H23.552a1.474,1.474,0,0,1,1.472,1.472Zm14.72,5.888H22.08a.736.736,0,0,0,0-1.472H16.192a.736.736,0,0,0,0,1.472Zm0,2.944H22.08a.736.736,0,0,0,0-1.472H16.192a.736.736,0,0,0,0,1.472Zm-7.36,0a2.944,2.944,0,1,0-2.944-2.944A2.944,2.944,0,0,0,8.832,43.776Zm0-4.416A1.472,1.472,0,1,1,7.36,40.832,1.474,1.474,0,0,1,8.832,39.36Zm-4.416,10.3a.736.736,0,0,0,.736-.736A2.209,2.209,0,0,1,7.36,46.72H10.3a2.208,2.208,0,0,1,2.208,2.208.736.736,0,1,0,1.472,0,3.68,3.68,0,0,0-3.68-3.68H7.36a3.68,3.68,0,0,0-3.68,3.68A.737.737,0,0,0,4.416,49.664Z" transform="translate(1250 1011)" fill="#2f3a48"/>
  </g>
</svg>
