<svg xmlns="http://www.w3.org/2000/svg" width="60" height="60" viewBox="0 0 60 60">
  <g id="Icon-telescope" transform="translate(-1233 -1023)">
    <g id="Group_160971" data-name="Group 160971" transform="translate(433)">
      <g id="Group_160965" data-name="Group 160965" transform="translate(84)">
        <g id="Group_160963" data-name="Group 160963" transform="translate(84)">
          <g id="Form-chev-down" transform="translate(168 92)">
            <g id="Group_160974" data-name="Group 160974">
              <path id="Path_83191" data-name="Path 83191" d="M0,0H60V60H0Z" transform="translate(464 931)" fill="none"/>
            </g>
          </g>
        </g>
      </g>
    </g>
    <path id="Path_83201" data-name="Path 83201" d="M19.508,12.306l-1.767.592a3.3,3.3,0,0,0-6.332,1.833L5.59,16.536c-.2-.5-1.432-3.6-1.653-4.148L16.827,5.8a.775.775,0,0,0,.32-.991.738.738,0,0,0-.99-.321L3.32,11.073a1.433,1.433,0,0,0-.736,1.817C2.835,13.5,4.063,16.6,4.27,17.1a1.416,1.416,0,0,0,1.312.854,1.457,1.457,0,0,0,.466-.078l6.067-1.813a3.327,3.327,0,0,0,.25.289L10.29,22.58a.738.738,0,0,0,.466.932.6.6,0,0,0,.229.041.738.738,0,0,0,.7-.5l1.975-5.929a3.008,3.008,0,0,0,2.012,0l1.975,5.929a.746.746,0,0,0,.7.5.73.73,0,0,0,.233-.037.739.739,0,0,0,.466-.932l-2.075-6.228a3.3,3.3,0,0,0,.966-1.953l2.082-.7a.735.735,0,0,0,.463-.932A.757.757,0,0,0,19.508,12.306ZM14.665,15.82a1.841,1.841,0,1,1,1.84-1.841A1.842,1.842,0,0,1,14.665,15.82ZM1.415,14.831a.735.735,0,1,0-1.359.562l.836,2.018a.736.736,0,0,0,.68.455.717.717,0,0,0,.282-.056.737.737,0,0,0,.4-.962Zm27.923-5.5L25.826.852A1.449,1.449,0,0,0,24.007.095L19.2,2.087a1.445,1.445,0,0,0-.855,1.284,1.466,1.466,0,0,0,.106.534l3.509,8.478a1.44,1.44,0,0,0,1.285.86,1.512,1.512,0,0,0,.532-.106l4.8-1.99a1.441,1.441,0,0,0,.86-1.287A1.607,1.607,0,0,0,29.339,9.334ZM23.28,11.781,19.726,3.4l4.7-2.035L27.9,9.779Z" transform="translate(1248.28 1041.223)" fill="#2f3a48"/>
  </g>
</svg>
