<?xml version="1.0" encoding="UTF-8"?>
<svg width="26.492" height="23.549" version="1.1" viewBox="0 0 26.492 23.549" xmlns="http://www.w3.org/2000/svg">
 <g id="Icon-home" transform="translate(-816.75 -1041.2)">
  <g transform="translate(84)" data-name="Group 160965">
   <g transform="translate(84)" data-name="Group 160963">
    <g id="Form-chev-down" transform="translate(168,92)">
     <path transform="translate(464,931)" d="m0 0h60v60h-60z" fill="none" data-name="Path 83191"/>
     <g id="Home-EP" transform="translate(480.76 949.22)">
      <path d="m26.247 11.224a0.7 0.7 0 0 1 0.023 1.04 0.656 0.656 0 0 1-1 0.023l-1.72-1.518v9.1a3.679 3.679 0 0 1-3.68 3.68h-13.246a3.68 3.68 0 0 1-3.68-3.68v-9.1l-1.721 1.518a0.7 0.7 0 0 1-1.039-0.023 0.734 0.734 0 0 1 0.065-1.04l12.511-11.04a0.738 0.738 0 0 1 0.975 0zm-19.623 10.856h2.944v-7.36a1.47 1.47 0 0 1 1.472-1.472h4.416a1.47 1.47 0 0 1 1.472 1.472v7.36h2.944a2.209 2.209 0 0 0 2.208-2.208v-10.364l-8.832-7.79-8.832 7.79v10.364a2.209 2.209 0 0 0 2.208 2.208zm4.416 0h4.416v-7.36h-4.416z" fill="#2f3a48" data-name="Path 83208"/>
     </g>
    </g>
   </g>
  </g>
 </g>
</svg>
