<?xml version="1.0" encoding="UTF-8"?>
<svg width="23.552" height="23.552" version="1.1" viewBox="0 0 23.552 23.552" xmlns="http://www.w3.org/2000/svg">
 <g id="Icon-external-link" transform="translate(-566,-1041)">
  <g id="Form-chev-down" transform="translate(84,92)">
   <rect transform="translate(464,931)" width="60" height="60" fill="none" data-name="Rectangle 1219"/>
   <g id="external-link-light" transform="translate(482,949)">
    <path d="m20.24 11.776h-0.74a0.368 0.368 0 0 0-0.368 0.368v9.2a0.736 0.736 0 0 1-0.736 0.736h-16.188a0.736 0.736 0 0 1-0.736-0.736v-16.192a0.736 0.736 0 0 1 0.736-0.736h9.2a0.368 0.368 0 0 0 0.368-0.368v-0.736a0.368 0.368 0 0 0-0.368-0.368h-9.2a2.208 2.208 0 0 0-2.208 2.208v16.192a2.208 2.208 0 0 0 2.208 2.208h16.192a2.208 2.208 0 0 0 2.208-2.208v-9.2a0.368 0.368 0 0 0-0.368-0.368zm2.76-11.776-6.256 0.016a0.552 0.552 0 0 0-0.552 0.552v0.46a0.552 0.552 0 0 0 0.552 0.552l4.14-0.016 0.032 0.033-14.867 14.865a0.552 0.552 0 0 0 0 0.782l0.26 0.26a0.552 0.552 0 0 0 0.782 0l14.864-14.866 0.033 0.032-0.016 4.14a0.552 0.552 0 0 0 0.552 0.552h0.46a0.552 0.552 0 0 0 0.552-0.552l0.016-6.258a0.552 0.552 0 0 0-0.552-0.552z" fill="#2f3a48" data-name="external-link-light"/>
   </g>
  </g>
 </g>
</svg>
