<?xml version="1.0" encoding="UTF-8"?>
<svg width="29.438" height="23.552" version="1.1" viewBox="0 0 29.438 23.552" xmlns="http://www.w3.org/2000/svg">
 <g id="Icon-user-settings" transform="translate(-815,-1041)">
  <g transform="translate(84)" data-name="Group 160965">
   <g transform="translate(84)" data-name="Group 160963">
    <g id="Form-chev-down" transform="translate(168,92)">
     <path transform="translate(464,931)" d="m0 0h60v60h-60z" fill="none" data-name="Path 83191"/>
     <g transform="translate(479,949)" data-name="Component 29 – 3">
      <path d="m28.846 16.5-0.767-0.443a5.356 5.356 0 0 0 0.034-0.6 5.559 5.559 0 0 0-0.035-0.612l0.769-0.444a1.178 1.178 0 0 0 0.532-1.381 7.659 7.659 0 0 0-1.545-2.682 1.2 1.2 0 0 0-1.462-0.227l-0.795 0.459a5.936 5.936 0 0 0-1.023-0.591v-0.908a1.179 1.179 0 0 0-0.924-1.151 7.438 7.438 0 0 0-3.105 0 1.181 1.181 0 0 0-0.925 1.151v0.914a5.955 5.955 0 0 0-1.022 0.591l-0.792-0.457a1.2 1.2 0 0 0-1.467 0.229 7.645 7.645 0 0 0-1.542 2.678 1.177 1.177 0 0 0 0.533 1.383l0.768 0.444a5.562 5.562 0 0 0-0.035 0.612 5.357 5.357 0 0 0 0.034 0.6l-0.765 0.441a1.173 1.173 0 0 0-0.535 1.383 7.632 7.632 0 0 0 1.54 2.674 1.208 1.208 0 0 0 1.467 0.237l0.781-0.451a5.965 5.965 0 0 0 1.035 0.6v0.9a1.18 1.18 0 0 0 0.926 1.151 7.439 7.439 0 0 0 3.105 0 1.18 1.18 0 0 0 0.922-1.151v-0.9a5.958 5.958 0 0 0 1.035-0.6l0.779 0.448a1.2 1.2 0 0 0 1.466-0.229 7.639 7.639 0 0 0 1.543-2.678 1.167 1.167 0 0 0-0.53-1.39zm-2.291-1.9a4.226 4.226 0 0 1 0 1.709l-0.1 0.512 1.441 0.832a6.167 6.167 0 0 1-1 1.741l-1.455-0.838-0.4 0.342a4.536 4.536 0 0 1-1.47 0.851l-0.492 0.173v1.678a5.9 5.9 0 0 1-2.01 0v-1.674l-0.492-0.173a4.554 4.554 0 0 1-1.469-0.851l-0.4-0.344-1.456 0.84a6.156 6.156 0 0 1-1-1.741l1.441-0.832-0.1-0.512a4.226 4.226 0 0 1 0-1.709l0.1-0.513-1.444-0.835a6.222 6.222 0 0 1 1-1.742l1.466 0.847 0.4-0.339a4.509 4.509 0 0 1 1.459-0.844l0.493-0.173v-1.69a5.9 5.9 0 0 1 2.01 0v1.692l0.494 0.171a4.525 4.525 0 0 1 1.459 0.844l0.4 0.339 1.466-0.847a6.223 6.223 0 0 1 1 1.742l-1.444 0.835zm-4.475-1.72a2.544 2.544 0 0 0-2.535 2.576 2.535 2.535 0 1 0 5.069 0 2.543 2.543 0 0 0-2.534-2.576zm0 3.68a1.104 1.104 0 1 1 0-2.208 1.104 1.104 0 0 1 0 2.208zm-5.152 5.52h-15.334a0.124 0.124 0 0 1-0.122-0.124 6.508 6.508 0 0 1 6.5-6.5h4.54a0.736 0.736 0 0 0 0-1.472h-4.54a7.968 7.968 0 0 0-7.972 7.976 1.6 1.6 0 0 0 1.594 1.592h15.334a0.736 0.736 0 0 0 0-1.472zm-6.628-10.304a5.888 5.888 0 1 0-5.884-5.888 5.888 5.888 0 0 0 5.884 5.888zm0-10.3a4.416 4.416 0 1 1-4.412 4.412 4.421 4.421 0 0 1 4.412-4.416z" fill="#2f3a48" data-name="Path 83207"/>
     </g>
    </g>
   </g>
  </g>
 </g>
</svg>
