<svg id="inscrire-_pen-alt-light" data-name="inscrire- pen-alt-light" xmlns="http://www.w3.org/2000/svg" width="29.438" height="29.438" viewBox="0 0 29.438 29.438">
  <path id="pen-alt-light" d="M28.351,3.235,26.194,1.078a3.679,3.679,0,0,0-5.2,0l-3.9,3.9-1.3-1.3a1.839,1.839,0,0,0-2.6,0L5.7,11.161a.46.46,0,0,0,0,.65l.65.65a.46.46,0,0,0,.65,0l7.481-7.481,1.3,1.3L5.393,16.675A18.8,18.8,0,0,0,0,27.892l0,.013a1.381,1.381,0,0,0,1.369,1.532,18.654,18.654,0,0,0,11.386-5.4l15.6-15.6a3.68,3.68,0,0,0,0-5.2Zm-16.9,19.5A17.024,17.024,0,0,1,1.9,27.529a17.028,17.028,0,0,1,4.792-9.553L17.088,7.582h0l4.758,4.758L11.453,22.735Zm15.6-15.6-3.9,3.9L18.389,6.281l3.9-3.9a1.839,1.839,0,0,1,2.6,0L27.05,4.535A1.839,1.839,0,0,1,27.05,7.137Z" transform="translate(0.009)" fill="#2f3a48"/>
</svg>
