<svg id="envelope-light" xmlns="http://www.w3.org/2000/svg" width="29.434" height="22.074" viewBox="0 0 29.434 22.074">
  <path id="envelope-light-2" data-name="envelope-light" d="M26.674,64H2.759A2.76,2.76,0,0,0,0,66.759V83.316a2.76,2.76,0,0,0,2.759,2.759H26.674a2.76,2.76,0,0,0,2.759-2.759V66.759A2.76,2.76,0,0,0,26.674,64ZM2.759,65.84H26.674a.922.922,0,0,1,.92.92v2.38c-1.259,1.064-3.058,2.529-8.658,6.973-.972.77-2.886,2.627-4.22,2.6-1.334.023-3.254-1.834-4.22-2.6C4.9,71.669,3.1,70.2,1.84,69.139v-2.38A.922.922,0,0,1,2.759,65.84Zm23.915,18.4H2.759a.922.922,0,0,1-.92-.92V71.531c1.311,1.075,3.38,2.736,7.514,6.019,1.178.943,3.26,3.018,5.364,3.007,2.093.017,4.156-2.041,5.364-3.007,4.133-3.283,6.2-4.944,7.514-6.019V83.316A.922.922,0,0,1,26.674,84.235Z" transform="translate(0 -64)" fill="#2f3a48"/>
</svg>
