<svg id="external-link-light" xmlns="http://www.w3.org/2000/svg" width="29.438" height="29.438" viewBox="0 0 29.438 29.438">
  <path id="external-link-light-2" data-name="external-link-light" d="M25.3,14.719h-.92a.46.46,0,0,0-.46.46v11.5a.92.92,0,0,1-.92.92H2.76a.92.92,0,0,1-.92-.92V6.439a.92.92,0,0,1,.92-.92h11.5a.46.46,0,0,0,.46-.46V4.14a.46.46,0,0,0-.46-.46H2.76A2.76,2.76,0,0,0,0,6.439V26.678a2.76,2.76,0,0,0,2.76,2.76H23a2.76,2.76,0,0,0,2.76-2.76v-11.5A.46.46,0,0,0,25.3,14.719ZM28.748,0,20.928.02a.69.69,0,0,0-.69.69v.575a.69.69,0,0,0,.69.69l5.175-.02.04.041L7.561,20.575a.69.69,0,0,0,0,.977l.325.325a.69.69,0,0,0,.977,0L27.442,3.3l.041.04-.02,5.175a.69.69,0,0,0,.69.69h.575a.69.69,0,0,0,.69-.69L29.438.69A.69.69,0,0,0,28.748,0Z" fill="#2f3a48"/>
</svg>
