<svg xmlns="http://www.w3.org/2000/svg" width="23.549" height="20.607" viewBox="0 0 23.549 20.607">
  <path id="Home-EP" d="M55.465,41.1,44.754,32.36a1.479,1.479,0,0,0-1.857,0L32.189,41.1a.368.368,0,0,0-.053.517l.465.571a.368.368,0,0,0,.515.055L35,40.708V51.886a.736.736,0,0,0,.736.736h5.888a.736.736,0,0,0,.736-.736V46l2.944.014V51.9a.736.736,0,0,0,.736.736l5.888-.015a.736.736,0,0,0,.736-.736V40.708l1.88,1.535a.368.368,0,0,0,.518-.053l.465-.571a.368.368,0,0,0-.056-.518ZM51.182,51.156h0l-4.416.014v-5.9a.738.738,0,0,0-.734-.736l-4.416-.012a.736.736,0,0,0-.738.736v5.894H36.467V39.507l7.36-6.006,7.36,6.006Z" transform="translate(-32.054 -32.033)" fill="#2f3a48"/>
</svg>
