<svg xmlns="http://www.w3.org/2000/svg" width="29.441" height="22.075" viewBox="0 0 29.441 22.075">
  <path id="Log-out" d="M2.759,64h7.588a.692.692,0,0,1,.69.69v.46a.692.692,0,0,1-.69.69H2.759a.922.922,0,0,0-.92.92V83.316a.922.922,0,0,0,.92.92h7.588a.692.692,0,0,1,.69.69v.46a.692.692,0,0,1-.69.69H2.759A2.76,2.76,0,0,1,0,83.316V66.759A2.76,2.76,0,0,1,2.759,64ZM18.8,65.121l-.408.408a.69.69,0,0,0,0,.977l7.588,7.554H9.888a.692.692,0,0,0-.69.69v.575a.692.692,0,0,0,.69.69H25.978L18.4,83.569a.69.69,0,0,0,0,.977l.408.408a.69.69,0,0,0,.977,0l9.457-9.428a.69.69,0,0,0,0-.977l-9.462-9.428A.69.69,0,0,0,18.8,65.121Z" transform="translate(0 -64)" fill="#2f3a48"/>
</svg>
