<?xml version="1.0" encoding="UTF-8" standalone="no"?>
<svg
   id="se_former_-_pen-alt-light"
   data-name="se former - pen-alt-light"
   width="60"
   height="60"
   viewBox="0 0 60.000002 60.000001"
   version="1.1"
   sodipodi:docname="se former - pen-alt-light.svg"
   inkscape:version="1.1.1 (3bf5ae0d25, 2021-09-20)"
   xmlns:inkscape="http://www.inkscape.org/namespaces/inkscape"
   xmlns:sodipodi="http://sodipodi.sourceforge.net/DTD/sodipodi-0.dtd"
   xmlns="http://www.w3.org/2000/svg"
   xmlns:svg="http://www.w3.org/2000/svg">
  <defs
     id="defs6" />
  <sodipodi:namedview
     id="namedview4"
     pagecolor="#ffffff"
     bordercolor="#666666"
     borderopacity="1.0"
     inkscape:pageshadow="2"
     inkscape:pageopacity="0.0"
     inkscape:pagecheckerboard="0"
     showgrid="false"
     width="60px"
     inkscape:zoom="4.9962026"
     inkscape:cx="-43.933367"
     inkscape:cy="29.32227"
     inkscape:window-width="1920"
     inkscape:window-height="1017"
     inkscape:window-x="4472"
     inkscape:window-y="243"
     inkscape:window-maximized="1"
     inkscape:current-layer="se_former_-_pen-alt-light" />
  <path
     id="pen-alt-light"
     d="m 43.639792,18.515555 -2.157,-2.157 a 3.679,3.679 0 0 0 -5.2,0 l -3.9,3.9 -1.3,-1.3 a 1.839,1.839 0 0 0 -2.6,0 l -7.494,7.483 a 0.46,0.46 0 0 0 0,0.65 l 0.65,0.65 a 0.46,0.46 0 0 0 0.65,0 l 7.481,-7.481 1.3,1.3 -10.388,10.395 a 18.8,18.8 0 0 0 -5.393,11.217 v 0.013 a 1.381,1.381 0 0 0 1.369,1.532 18.654,18.654 0 0 0 11.386,-5.4 l 15.6,-15.6 a 3.68,3.68 0 0 0 0,-5.2 z m -16.9,19.5 a 17.024,17.024 0 0 1 -9.551,4.794 17.028,17.028 0 0 1 4.792,-9.553 l 10.396,-10.394 v 0 l 4.758,4.758 -10.393,10.395 z m 15.6,-15.6 -3.9,3.9 -4.762,-4.754 3.9,-3.9 a 1.839,1.839 0 0 1 2.6,0 l 2.161,2.154 a 1.839,1.839 0 0 1 0,2.602 z"
     fill="#2f3a48" />
</svg>
