<?xml version="1.0" encoding="UTF-8"?>
<svg width="23.605" height="23.552" version="1.1" viewBox="0 0 23.605 23.552" xmlns="http://www.w3.org/2000/svg">
 <g id="Form-search" transform="translate(-891.95 -952)">
  <g transform="translate(324)" data-name="Group 160942">
   <g data-name="Group 160934">
    <path transform="translate(550,934)" d="m0 0h60v60h-60z" fill="none" data-name="Path 83167"/>
    <path transform="translate(568,952)" d="m23.336 22.3-6.509-6.509a9.593 9.593 0 0 0-7.301-15.791 9.568 9.568 0 1 0 6.219 16.829l6.509 6.509a0.928 0.928 0 0 0 0.561 0.214 0.735 0.735 0 0 0 0.52-1.256zm-13.768-4.636a8.1 8.1 0 1 1 8.1-8.1 8.081 8.081 0 0 1-8.1 8.1z" fill="#2f3a48" data-name="Path 83182"/>
   </g>
  </g>
 </g>
</svg>
