<svg xmlns="http://www.w3.org/2000/svg" width="29.44" height="23.552" viewBox="0 0 29.44 23.552">
  <path id="User-settings" d="M28.9,16.482l-.759-.437a6.294,6.294,0,0,0,0-1.178l.764-.437a1.059,1.059,0,0,0,.483-1.242A7.618,7.618,0,0,0,27.7,10.267a1.059,1.059,0,0,0-1.32-.2l-.759.437A5.941,5.941,0,0,0,24.6,9.913V9.039a1.064,1.064,0,0,0-.837-1.044,7.7,7.7,0,0,0-3.367,0,1.068,1.068,0,0,0-.837,1.044v.874a5.941,5.941,0,0,0-1.021.589l-.759-.437a1.058,1.058,0,0,0-1.32.2,7.754,7.754,0,0,0-1.688,2.916,1.075,1.075,0,0,0,.488,1.251l.759.437a6.3,6.3,0,0,0,0,1.178l-.764.437a1.077,1.077,0,0,0-.483,1.247,7.618,7.618,0,0,0,1.688,2.921,1.07,1.07,0,0,0,1.32.2l.759-.437a5.941,5.941,0,0,0,1.021.589v.874a1.064,1.064,0,0,0,.837,1.044,7.794,7.794,0,0,0,3.367,0,1.068,1.068,0,0,0,.837-1.044v-.874a5.941,5.941,0,0,0,1.021-.589l.759.437a1.071,1.071,0,0,0,1.32-.2,7.754,7.754,0,0,0,1.688-2.916A1.081,1.081,0,0,0,28.9,16.482Zm-2.374.331,1.352.782a6.082,6.082,0,0,1-1.049,1.817l-1.352-.782a5.268,5.268,0,0,1-2.351,1.357v1.564a6.176,6.176,0,0,1-2.1,0V19.987a5.327,5.327,0,0,1-2.351-1.357l-1.352.782a6.139,6.139,0,0,1-1.049-1.817l1.352-.782a5.37,5.37,0,0,1,0-2.714l-1.352-.782A6.139,6.139,0,0,1,17.328,11.5l1.352.782a5.268,5.268,0,0,1,2.351-1.357V9.361a6.42,6.42,0,0,1,2.1,0v1.564a5.309,5.309,0,0,1,2.351,1.357l1.352-.782a6.139,6.139,0,0,1,1.049,1.817l-1.352.782A5.37,5.37,0,0,1,26.528,16.813ZM22.08,12.489a2.967,2.967,0,1,0,2.967,2.967A2.971,2.971,0,0,0,22.08,12.489Zm0,4.462a1.495,1.495,0,1,1,1.5-1.495A1.5,1.5,0,0,1,22.08,16.951ZM10.3,11.776A5.888,5.888,0,1,0,4.416,5.888,5.888,5.888,0,0,0,10.3,11.776Zm0-10.3A4.416,4.416,0,1,1,5.888,5.888,4.423,4.423,0,0,1,10.3,1.472ZM2.208,22.08a.738.738,0,0,1-.736-.736V19.43a4.714,4.714,0,0,1,4.71-4.71c.9,0,1.8.736,4.122.736a9.252,9.252,0,0,0,2.6-.4,9.2,9.2,0,0,1,.193-1.564,8.541,8.541,0,0,1-2.792.492c-2.167,0-2.8-.736-4.122-.736A6.184,6.184,0,0,0,0,19.43v1.914a2.209,2.209,0,0,0,2.208,2.208h15.5a9.025,9.025,0,0,1-2-1.472Z" fill="#2f3a48"/>
</svg>
