<svg id="user-circle-light" xmlns="http://www.w3.org/2000/svg" width="28.525" height="28.525" viewBox="0 0 28.525 28.525">
  <path id="user-circle-light-2" data-name="user-circle-light" d="M14.262,8A14.262,14.262,0,1,0,28.525,22.263,14.26,14.26,0,0,0,14.262,8Zm7.361,24.246a12.331,12.331,0,0,1-14.723,0v-.782a3.684,3.684,0,0,1,3.681-3.681c.638,0,1.582.656,3.681.656s3.037-.656,3.681-.656a3.684,3.684,0,0,1,3.681,3.681Zm1.76-1.582a5.5,5.5,0,0,0-5.44-4.722c-1.179,0-1.748.656-3.681.656s-2.5-.656-3.681-.656a5.5,5.5,0,0,0-5.44,4.722,12.422,12.422,0,1,1,18.242,0ZM14.262,14.441A5.061,5.061,0,1,0,19.323,19.5,5.061,5.061,0,0,0,14.262,14.441Zm0,8.281A3.221,3.221,0,1,1,17.483,19.5,3.223,3.223,0,0,1,14.262,22.723Z" transform="translate(0 -8)" fill="#2f3a48"/>
</svg>
